<svg width="3002" height="3002" viewBox="0 0 3002 3002" fill="none" xmlns="http://www.w3.org/2000/svg">
<path d="M3001 1646.98L2190.33 845.434L2155.65 811.675L1354.1 1M2961.31 1672.53L2157.94 878.282L2123.72 844.979L1329.47 41.6038M2921.62 1697.62L2125.55 910.67L2091.79 877.824L1304.84 81.7474M2881.93 1722.72L2093.15 943.065L2059.39 910.219L1279.28 121.442M2841.78 1747.35L2060.3 974.539L2027 942.149L1254.19 160.671M2801.18 1772.44L2027 1006.93L1994.15 974.996L1229.1 200.818M2761.95 1797.53L1995.07 1039.32L1962.22 1007.39L1204.01 240.509M2721.8 1822.17L1962.22 1071.26L1929.83 1039.78L1178.92 280.655M2681.2 1848.17L1928.92 1104.56L1896.99 1073.54L1153.37 321.257M2642.88 1871.44L1897.45 1136.04L1865.51 1105.01L1128.74 360.489M2602.28 1897.9L1864.6 1168.43L1833.12 1137.86L1103.65 400.18M2562.59 1922.98L1832.21 1200.81L1801.19 1170.7L1078.56 440.322M2522.9 1948.08L1799.36 1233.21L1768.34 1203.1L1053.46 480.015M2482.29 1973.63L1766.51 1266.05L1735.94 1236.4L1028.83 520.16M2442.61 1998.26L1734.12 1297.53L1704.01 1268.33L1003.28 559.849M2402.92 2023.35L1701.73 1329.92L1671.62 1300.72L978.191 599.539M2363.23 2047.99L1669.34 1361.86L1639.69 1333.12L953.554 639.231M2323.08 2073.54L1636.5 1394.7L1607.3 1366.42L928.467 679.833M2283.39 2098.63L1604.1 1426.64L1574.9 1398.36L903.368 719.068M2243.24 2123.26L1571.25 1459.03L1542.51 1431.2L877.824 759.211M2203.1 2148.81L1538.41 1491.42L1510.12 1464.05L852.734 799.358M2163.4 2173.9L1506.01 1523.81L1477.73 1496.44L827.637 839.05M2122.81 2199.9L1473.63 1555.74L1445.8 1528.83L803.007 878.735M2083.57 2223.17L1440.78 1587.22L1413.41 1560.76L777.462 917.969M2044.34 2248.72L1408.85 1620.07L1381.93 1593.61L753.281 958.117M2004.19 2274.27L1376 1652.92L1349.08 1626.91L727.729 998.719M1964.05 2299.36L1343.15 1684.85L1316.69 1659.3L702.643 1038.41M1924.36 2324.45L1310.77 1717.69L1284.76 1692.15L678.011 1078.55M1883.75 2349.54L1277.46 1749.63L1251.45 1724.54L651.543 1118.24M1844.07 2374.17L1245.07 1781.57L1219.52 1756.93L626.913 1157.93M1804.38 2399.72L1212.68 1814.41L1187.59 1789.78L602.282 1198.08M1764.68 2425.27L1180.29 1847.26L1155.19 1823.08L577.184 1238.68M1725 2449.9L1147.9 1879.19L1123.26 1855.47L552.095 1277.46M1684.85 2474.54L1115.05 1911.13L1090.87 1887.41L527.003 1317.61M1645.16 2499.63L1082.66 1943.06L1058.48 1919.79L501.908 1357.29M1605.01 2525.63L1049.81 1975.45L1026.09 1952.64L476.821 1397.44M1565.78 2549.36L1017.42 2007.39L994.155 1984.58L451.728 1437.13M1525.64 2574.91L984.578 2040.23L961.311 2017.88L426.64 1476.82M1486.4 2600L952.641 2072.17L929.831 2050.27L402.002 1516.51M1445.8 2625.54L919.344 2105.01L896.991 2083.11L376.461 1556.65M1406.11 2650.18L886.952 2136.95L864.598 2115.51L351.368 1596.8M1365.96 2675.27L854.103 2169.34L832.205 2148.35L326.274 1636.49M1326.27 2700.81L821.71 2202.18L800.269 2181.2L301.637 1676.64M1286.59 2724.54L789.322 2232.75L767.88 2212.22L276.092 1714.96M1246.89 2750.09L756.929 2265.6L735.944 2245.53L251.455 1755.56M1206.29 2775.63L723.628 2298.44L703.099 2278.37L225.909 1795.71M1167.06 2800.27L691.695 2330.38L671.622 2310.76L201.731 1835.4M1126.91 2825.81L658.849 2363.22L638.776 2344.06L176.185 1876M1087.68 2850.91L626.912 2395.16L607.296 2376L151.547 1915.23M1047.53 2876L594.065 2427.55L574.904 2408.84L126.455 1955.38M1007.84 2900.63L561.672 2459.48L542.511 2441.24L101.362 1995.07M966.33 2926.64L527.462 2492.79L508.757 2474.54L74.9069 2035.67M926.184 2951.73L494.615 2525.18L476.367 2507.39L49.8155 2075.82M888.321 2976.36L464.051 2556.65L445.803 2539.32L26.0949 2115.05M848.171 3001L431.201 2588.59L413.409 2571.26L1 2154.29" stroke="url(#paint0_linear_15_44)" stroke-miterlimit="10" stroke-linecap="round"/>
<defs>
<linearGradient id="paint0_linear_15_44" x1="1263.13" y1="2725.79" x2="1363.33" y2="-0.739224" gradientUnits="userSpaceOnUse">
<stop offset="0.265625" stop-color="#C890FF"/>
<stop offset="1" stop-color="#7919FF"/>
</linearGradient>
</defs>
</svg>
