<svg width="2811" height="3039" viewBox="0 0 2811 3039" fill="none" xmlns="http://www.w3.org/2000/svg">
<path d="M0.937158 1234.98L970.849 635.857L1012.21 610.743L1975.28 0.680532M33.8768 1268.79L995.037 675.137L1035.86 650.365L1990.17 45.7774M66.9204 1302.14L1019.33 713.969L1059.6 689.539L2005.17 90.4263M99.9677 1335.51L1043.63 752.81L1083.9 728.379L2021.16 134.844M133.563 1368.52L1068.57 790.854L1108.3 766.766L2036.8 178.704M167.497 1402.09L1093.75 829.895L1132.93 806.148L2052.24 223.459M200.095 1435.35L1117.6 868.627L1156.78 844.881L2067.78 267.768M233.686 1468.36L1142.44 907.12L1181.07 883.716L2083.22 312.522M267.414 1502.82L1167.42 947.048L1205.5 923.986L2099 357.823M299.531 1534.09L1191.02 984.786L1229.1 961.724L2114.2 401.582M333.161 1568.99L1215.76 1023.73L1253.3 1001.01L2129.74 445.894M366.204 1602.35L1240.05 1062.56L1277.04 1040.18L2145.18 490.643M399.249 1635.71L1264.79 1101.5L1301.78 1079.12L2160.72 534.956M433.085 1669.72L1289.43 1140.88L1325.87 1118.84L2175.72 579.607M466.228 1702.63L1313.93 1178.82L1349.82 1157.13L2191.7 624.017M499.273 1735.99L1338.22 1217.66L1374.12 1195.96L2207.25 668.327M532.422 1768.91L1362.62 1256.05L1397.97 1234.7L2222.35 712.536M565.805 1802.82L1387.25 1295.43L1422.05 1274.42L2237.68 757.733M598.856 1836.18L1411.65 1333.82L1446.45 1312.81L2253.33 801.601M632.446 1869.2L1436.39 1372.76L1470.64 1352.09L2269.21 846.454M665.831 1903.1L1461.12 1411.69L1494.83 1391.37L2284.65 891.208M698.881 1936.47L1485.42 1450.53L1519.13 1430.21L2300.2 935.52M732.606 1970.92L1509.81 1488.92L1542.97 1468.93L2315.29 979.721M765.613 2002.4L1534.75 1526.96L1567.37 1507.32L2331.37 1023.69M798.113 2036.1L1558.5 1566.14L1590.67 1546.4L2345.93 1068.24M831.503 2070.01L1583.14 1605.53L1615.21 1586.23L2361.71 1113.54M864.988 2103.47L1607.98 1644.02L1639.5 1625.06L2377.25 1157.85M898.031 2136.83L1632.17 1683.29L1663.24 1664.24L2392.24 1202.5M931.972 2170.4L1657.46 1721.89L1688.43 1703.28L2409.12 1247.12M965.114 2203.31L1681.85 1760.28L1712.27 1742.01L2424.22 1291.32M998.051 2237.11L1706.03 1799.56L1736.01 1781.19L2439.21 1335.97M1031 2270.92L1730.23 1838.84L1760.11 1820.91L2454.55 1381.17M1064.15 2303.83L1754.63 1877.23L1783.96 1859.64L2470.3 1424.59M1097.74 2336.85L1779.47 1915.72L1808.35 1898.03L2485.73 1469.35M1130.79 2370.21L1803.87 1954.11L1832.65 1936.87L2501.28 1513.66M1164.07 2404.56L1828.6 1993.05L1856.84 1976.14L2516.72 1558.41M1196.98 2436.49L1853 2031.44L1880.79 2014.44L2532.26 1602.72M1230.36 2470.4L1877.63 2070.82L1905.32 2054.26L2547.8 1647.03M1262.96 2503.66L1901.58 2109.11L1928.73 2092.89L2562.9 1691.24M1296.79 2537.66L1926.66 2148.59L1953.36 2132.27L2578.78 1736.09M1329.94 2570.58L1951.05 2186.98L1977.65 2171.11L2594.22 1780.84M1363.43 2604.04L1975.79 2225.92L2001.84 2210.39L2609.76 1825.16M1396.37 2637.85L1999.99 2265.2L2025.59 2249.56L2624.76 1869.8M1429.72 2669.87L2024.69 2302.26L2050.19 2287.06L2641.05 1912.88M1462.67 2703.68L2048.88 2341.54L2073.84 2326.69L2655.94 1957.98M1496.5 2737.69L2073.96 2381.02L2098.47 2366.07L2671.83 2002.84M1529.2 2770.5L2097.91 2419.31L2121.87 2404.7L2686.48 2046.94M1562.58 2804.4L2122.54 2458.69L2146.41 2444.52L2702.26 2092.24M1595.19 2837.67L2146.5 2496.98L2169.91 2482.71L2717.46 2136M1628.68 2871.13L2171.23 2535.91L2194.1 2521.99L2732.9 2180.76M1661.83 2904.04L2195.63 2574.3L2218.4 2560.82L2748.44 2225.07M1696.44 2938.7L2221.49 2614.44L2243.82 2600.85L2765.11 2270.57M1729.93 2972.17L2246.23 2653.38L2268.01 2640.13L2780.55 2315.33M1761.3 3004.67L2268.95 2690.91L2290.62 2678.11L2794.86 2358.88M1794.89 3037.69L2293.79 2729.4L2315.02 2716.5L2810.51 2402.75" stroke="url(#paint0_linear_15_43)" stroke-miterlimit="10" stroke-linecap="round"/>
<defs>
<linearGradient id="paint0_linear_15_43" x1="1843.05" y1="-66.7773" x2="1153.6" y2="2926.29" gradientUnits="userSpaceOnUse">
<stop offset="0.4115" stop-color="#32E685"/>
<stop offset="0.9988" stop-color="#32E685"/>
</linearGradient>
</defs>
</svg>
